<svg xmlns="http://www.w3.org/2000/svg" viewBox="-2 -2 64 324"><defs><linearGradient id="bbwwmg1" x1="0" y1="0" x2="0" y2="1"><stop offset="0" stop-color="#F2C3A2"/><stop offset="1" stop-color="#C9B2C4"/></linearGradient><clipPath id="bbwwmc2"><path d="M4 70C4 62 10 58 18 58L42 58C50 58 56 62 56 70L56 310Q56 320 46 320L14 320Q4 320 4 310Z" fill="#000" /></clipPath><linearGradient id="bbwwmg3" x1="0" y1="0" x2="1" y2="0"><stop offset="0" stop-color="#000" stop-opacity="0.192"/><stop offset="0.1" stop-color="#000" stop-opacity="0.06"/><stop offset="0.3" stop-color="#fff" stop-opacity="0.096"/><stop offset="0.38" stop-color="#fff" stop-opacity="0.06"/><stop offset="0.55" stop-color="#000" stop-opacity="0"/><stop offset="0.85" stop-color="#000" stop-opacity="0.06"/><stop offset="1" stop-color="#000" stop-opacity="0.216"/></linearGradient><linearGradient id="bbwwmg4" x1="0" y1="0" x2="1" y2="0"><stop offset="0" stop-color="#fff" stop-opacity="0"/><stop offset="0.5" stop-color="#fff" stop-opacity="0.4"/><stop offset="1" stop-color="#fff" stop-opacity="0"/></linearGradient><linearGradient id="bbwwmg5" x1="0" y1="0" x2="1" y2="0"><stop offset="0" stop-color="#482e25"/><stop offset="0.08" stop-color="#52352a"/><stop offset="0.27" stop-color="#7b6157"/><stop offset="0.36" stop-color="#876f66"/><stop offset="0.5" stop-color="#5A3A2E"/><stop offset="0.8" stop-color="#56372c"/><stop offset="0.94" stop-color="#4d3227"/><stop offset="1" stop-color="#442c23"/></linearGradient></defs><path d="M4 70C4 62 10 58 18 58L42 58C50 58 56 62 56 70L56 310Q56 320 46 320L14 320Q4 320 4 310Z" fill="url(#bbwwmg1)" /><g clip-path="url(#bbwwmc2)"><text x="30" y="176" font-family="'Helvetica Neue',Helvetica,Arial,Roboto,sans-serif" font-size="12" font-weight="300" fill="#B8735A" text-anchor="middle" textLength="40" lengthAdjust="spacingAndGlyphs" >WARM</text><text x="30" y="190" font-family="'Helvetica Neue',Helvetica,Arial,Roboto,sans-serif" font-size="8.5" font-weight="800" fill="#8A4F3A" text-anchor="middle" letter-spacing="1.6" >MUSK</text><text x="30" y="198" font-family="'Helvetica Neue',Helvetica,Arial,Roboto,sans-serif" font-size="3.2" font-weight="500" fill="#8A4F3A" text-anchor="middle" >BY</text><text x="30" y="205" font-family="'Helvetica Neue',Helvetica,Arial,Roboto,sans-serif" font-size="3.2" font-weight="700" fill="#B8735A" text-anchor="middle" textLength="40" lengthAdjust="spacingAndGlyphs" >BATH &amp; BODY WORKS</text><text x="30" y="270" font-family="'Helvetica Neue',Helvetica,Arial,Roboto,sans-serif" font-size="2.8" font-weight="600" fill="#fff" text-anchor="middle" textLength="36" lengthAdjust="spacingAndGlyphs" >DERMATOLOGIST TESTED</text><text x="30" y="280" font-family="Georgia,'Times New Roman','Noto Serif',serif" font-size="3.6" font-weight="700" fill="#fff" text-anchor="middle" textLength="42" lengthAdjust="spacingAndGlyphs" >FINE FRAGRANCE MIST</text><text x="30" y="287" font-family="'Helvetica Neue',Helvetica,Arial,Roboto,sans-serif" font-size="3" font-weight="500" fill="#fff" text-anchor="middle" >FOR BODY &amp; HAIR</text><text x="30" y="306" font-family="'Helvetica Neue',Helvetica,Arial,Roboto,sans-serif" font-size="3.2" font-weight="500" fill="#fff" text-anchor="middle" >8 FL OZ / 236 mL</text><rect x="4" y="58" width="52" height="262" fill="url(#bbwwmg3)" /><rect x="11" y="74" width="4" height="220" rx="2" fill="url(#bbwwmg4)" /></g><path d="M5 60L5 12C5 5 10 1 17 1L43 1C50 1 55 5 55 12L55 60Z" fill="url(#bbwwmg5)" opacity=".94"/><rect x="8" y="5" width="0.8" height="52" fill="#3A2218" opacity=".5"/><rect x="12.4" y="5" width="0.8" height="52" fill="#3A2218" opacity=".5"/><rect x="16.8" y="5" width="0.8" height="52" fill="#3A2218" opacity=".5"/><rect x="21.2" y="5" width="0.8" height="52" fill="#3A2218" opacity=".5"/><rect x="25.6" y="5" width="0.8" height="52" fill="#3A2218" opacity=".5"/><rect x="30" y="5" width="0.8" height="52" fill="#3A2218" opacity=".5"/><rect x="34.4" y="5" width="0.8" height="52" fill="#3A2218" opacity=".5"/><rect x="38.8" y="5" width="0.8" height="52" fill="#3A2218" opacity=".5"/><rect x="43.2" y="5" width="0.8" height="52" fill="#3A2218" opacity=".5"/><rect x="47.6" y="5" width="0.8" height="52" fill="#3A2218" opacity=".5"/><rect x="20" y="22" width="20" height="36" fill="#C98A6A" opacity=".35"/></svg>