<svg xmlns="http://www.w3.org/2000/svg" viewBox="-2 -2 104 304"><defs><linearGradient id="bypg1" x1="0" y1="0" x2="1" y2="0"><stop offset="0" stop-color="#c9c9c9"/><stop offset="0.08" stop-color="#e1e1e1"/><stop offset="0.27" stop-color="#f4f4f4"/><stop offset="0.36" stop-color="#f4f4f4"/><stop offset="0.5" stop-color="#F2F2F2"/><stop offset="0.8" stop-color="#e8e8e8"/><stop offset="0.94" stop-color="#d5d5d5"/><stop offset="1" stop-color="#c2c2c2"/></linearGradient><linearGradient id="bypg2" x1="0" y1="0" x2="1" y2="0"><stop offset="0" stop-color="#c5c5c5"/><stop offset="0.08" stop-color="#dcdcdc"/><stop offset="0.27" stop-color="#efefef"/><stop offset="0.36" stop-color="#f0f0f0"/><stop offset="0.5" stop-color="#EDEDED"/><stop offset="0.8" stop-color="#e4e4e4"/><stop offset="0.94" stop-color="#d1d1d1"/><stop offset="1" stop-color="#bebebe"/></linearGradient><linearGradient id="bypg3" x1="0" y1="0" x2="1" y2="0"><stop offset="0" stop-color="#cbcbcb"/><stop offset="0.08" stop-color="#e3e3e3"/><stop offset="0.27" stop-color="#f5f5f5"/><stop offset="0.36" stop-color="#f6f6f6"/><stop offset="0.5" stop-color="#F4F4F4"/><stop offset="0.8" stop-color="#eaeaea"/><stop offset="0.94" stop-color="#d7d7d7"/><stop offset="1" stop-color="#c3c3c3"/></linearGradient><linearGradient id="bypg4" x1="0" y1="0" x2="0" y2="1"><stop offset="0" stop-color="#fff"/><stop offset="1" stop-color="#D5D5D5"/></linearGradient><linearGradient id="bypg5" x1="0" y1="0" x2="1" y2="0"><stop offset="0" stop-color="#d59613"/><stop offset="0.08" stop-color="#eba616"/><stop offset="0.27" stop-color="#fcc24b"/><stop offset="0.36" stop-color="#fcc95d"/><stop offset="0.5" stop-color="#FBB117"/><stop offset="0.8" stop-color="#f2ab16"/><stop offset="0.94" stop-color="#e09e15"/><stop offset="1" stop-color="#ce9113"/></linearGradient><clipPath id="bypc6"><path d="M33 70L67 70C98.35 70 100 70.7 100 84L100 290Q100 300 90 300L10 300Q0 300 0 290L0 84C0 70.7 1.65 70 33 70Z" fill="#000" /></clipPath><linearGradient id="bypg7" x1="0" y1="0" x2="1" y2="0"><stop offset="0" stop-color="#000" stop-opacity="0.16"/><stop offset="0.1" stop-color="#000" stop-opacity="0.05"/><stop offset="0.3" stop-color="#fff" stop-opacity="0.08"/><stop offset="0.38" stop-color="#fff" stop-opacity="0.05"/><stop offset="0.55" stop-color="#000" stop-opacity="0"/><stop offset="0.85" stop-color="#000" stop-opacity="0.05"/><stop offset="1" stop-color="#000" stop-opacity="0.18"/></linearGradient><linearGradient id="bypg8" x1="0" y1="0" x2="1" y2="0"><stop offset="0" stop-color="#fff" stop-opacity="0"/><stop offset="0.5" stop-color="#fff" stop-opacity="0.6"/><stop offset="1" stop-color="#fff" stop-opacity="0"/></linearGradient></defs><rect x="33" y="46" width="34" height="26" rx="3" fill="url(#bypg1)" /><rect x="46" y="28" width="8" height="18" fill="url(#bypg2)" /><rect x="36" y="16" width="30" height="13" rx="3" fill="url(#bypg3)" /><rect x="8" y="19" width="32" height="6" rx="3" fill="url(#bypg4)" /><path d="M33 70L67 70C98.35 70 100 70.7 100 84L100 290Q100 300 90 300L10 300Q0 300 0 290L0 84C0 70.7 1.65 70 33 70Z" fill="url(#bypg5)" /><g clip-path="url(#bypc6)"><rect x="15" y="100" width="70" height="186" rx="8" fill="#FFE7A8" opacity=".45"/><text x="50" y="110" font-family="'Helvetica Neue',Helvetica,Arial,Roboto,sans-serif" font-size="3.2" font-weight="500" fill="#2F3A48" text-anchor="middle" letter-spacing="1.2" >SOIN DU CORPS</text><text x="50" y="121" font-family="'Helvetica Neue',Helvetica,Arial,Roboto,sans-serif" font-size="8" font-weight="300" fill="#2F3A48" text-anchor="middle" letter-spacing="1.4" >BYPHASSE</text><path d="M36 124C44 128 56 128 64 123" stroke="#27407A" stroke-width="1.2" fill="none"/><text x="50" y="139" font-family="'Arial Narrow','Helvetica Neue',Arial,sans-serif" font-size="10" font-weight="800" fill="#2F3A48" text-anchor="middle" textLength="56" lengthAdjust="spacingAndGlyphs" >GEL DOUCHE</text><text x="50" y="150" font-family="'Arial Narrow','Helvetica Neue',Arial,sans-serif" font-size="10" font-weight="800" fill="#2F3A48" text-anchor="middle" >DERMO</text><text x="50" y="159" font-family="'Helvetica Neue',Helvetica,Arial,Roboto,sans-serif" font-size="7" font-weight="400" fill="#2F3A48" text-anchor="middle" >MICELLAIRE</text><ellipse cx="48" cy="183" rx="11" ry="13" fill="#F28C1A"/><ellipse cx="45" cy="179" rx="4" ry="5" fill="#fff" opacity=".7"/><path d="M0 0C4.8 -5.6 12.8 -5.6 16 0C12.8 5.6 4.8 5.6 0 0Z" fill="#5E8C2E" transform="translate(58 176) rotate(-35)"/><path d="M0 0C4.2 -4.9 11.2 -4.9 14 0C11.2 4.9 4.2 4.9 0 0Z" fill="#6E9C36" transform="translate(38 172) rotate(-150)"/><text x="50" y="209" font-family="'Helvetica Neue',Helvetica,Arial,Roboto,sans-serif" font-size="11" font-weight="800" fill="#E67E0E" text-anchor="middle" stroke="#fff" stroke-width=".6" paint-order="stroke">ARGAN</text><rect x="30" y="212" width="40" height="1.4" fill="#fff" /><text x="50" y="222" font-family="'Helvetica Neue',Helvetica,Arial,Roboto,sans-serif" font-size="3.2" font-weight="400" fill="#2F3A48" text-anchor="middle" >Formulé avec des tensioactifs émollients</text><text x="50" y="226.5" font-family="'Helvetica Neue',Helvetica,Arial,Roboto,sans-serif" font-size="3.2" font-weight="400" fill="#2F3A48" text-anchor="middle" >et des agents hydratants</text><text x="50" y="233" font-family="'Helvetica Neue',Helvetica,Arial,Roboto,sans-serif" font-size="3.6" font-weight="700" fill="#2F3A48" text-anchor="middle" >Huile d&#x27;argan · pH neutre</text><text x="50" y="238" font-family="'Helvetica Neue',Helvetica,Arial,Roboto,sans-serif" font-size="3.2" font-weight="400" fill="#2F3A48" text-anchor="middle" >Tous types de peaux</text><text x="50" y="246" font-family="'Helvetica Neue',Helvetica,Arial,Roboto,sans-serif" font-size="3.2" font-weight="400" fill="#2F3A48" text-anchor="middle" >Dermo micellar shower gel argan</text><text x="50" y="250.5" font-family="'Helvetica Neue',Helvetica,Arial,Roboto,sans-serif" font-size="3.2" font-weight="400" fill="#2F3A48" text-anchor="middle" >All skin types</text><text x="50" y="270" font-family="'Helvetica Neue',Helvetica,Arial,Roboto,sans-serif" font-size="4.2" font-weight="700" fill="#2F3A48" text-anchor="middle" >1 L℮ (33.8 fl.oz.)</text><rect x="0" y="70" width="100" height="230" fill="url(#bypg7)" /><rect x="10" y="90" width="6" height="190" rx="3" fill="url(#bypg8)" /></g></svg>