<svg xmlns="http://www.w3.org/2000/svg" viewBox="-2 -2 64 294"><defs><linearGradient id="dovdsg1" x1="0" y1="0" x2="1" y2="0"><stop offset="0" stop-color="#93ad72"/><stop offset="0.08" stop-color="#a9c783"/><stop offset="0.27" stop-color="#c3dfa0"/><stop offset="0.36" stop-color="#c7e1a6"/><stop offset="0.5" stop-color="#B9D98F"/><stop offset="0.8" stop-color="#b0cf88"/><stop offset="0.94" stop-color="#9eba7a"/><stop offset="1" stop-color="#8da56d"/></linearGradient><linearGradient id="dovdsg2" x1="0" y1="0" x2="1" y2="0"><stop offset="0" stop-color="#c2c2c2"/><stop offset="0.08" stop-color="#e6e6e6"/><stop offset="0.27" stop-color="#ffffff"/><stop offset="0.36" stop-color="#ffffff"/><stop offset="0.5" stop-color="#FFFFFF"/><stop offset="0.8" stop-color="#f1f1f1"/><stop offset="0.94" stop-color="#d4d4d4"/><stop offset="1" stop-color="#b8b8b8"/></linearGradient><linearGradient id="dovdsg3" x1="0" y1="0" x2="1" y2="0"><stop offset="0" stop-color="#9ea1a5"/><stop offset="0.08" stop-color="#c1c4c9"/><stop offset="0.27" stop-color="#e1e4e8"/><stop offset="0.36" stop-color="#e3e6ea"/><stop offset="0.5" stop-color="#D9DDE2"/><stop offset="0.8" stop-color="#cbcfd4"/><stop offset="0.94" stop-color="#afb3b7"/><stop offset="1" stop-color="#94969a"/></linearGradient><linearGradient id="dovdsg4" x1="0" y1="0" x2="1" y2="0"><stop offset="0" stop-color="#000" stop-opacity="0.16"/><stop offset="0.1" stop-color="#000" stop-opacity="0.05"/><stop offset="0.3" stop-color="#fff" stop-opacity="0.08"/><stop offset="0.38" stop-color="#fff" stop-opacity="0.05"/><stop offset="0.55" stop-color="#000" stop-opacity="0"/><stop offset="0.85" stop-color="#000" stop-opacity="0.05"/><stop offset="1" stop-color="#000" stop-opacity="0.18"/></linearGradient></defs><path d="M6 58L6 26C6 8 18 0 30 0C42 0 54 8 54 26L54 58Z" fill="url(#dovdsg1)" /><ellipse cx="30" cy="14" rx="9" ry="4" fill="#9db87a"/><path d="M4 66C4 58 10 54 18 54L42 54C50 54 56 58 56 66L56 280Q56 290 46 290L14 290Q4 290 4 280Z" fill="url(#dovdsg2)" /><rect x="4" y="280" width="52" height="10" rx="4" fill="url(#dovdsg3)" /><path transform="translate(23 84) scale(0.7)" fill="#B8964A" d="M0 5C4 2 8 2 11 4C12 1 15 0 18 0C16 1 15 2 15 3L20 3C17 5 14 6 12 8C9 10 5 10 2 8C5 8 7 7 8 6C5 6 2 6 0 5Z"/><text x="30" y="110" font-family="Georgia,'Times New Roman','Noto Serif',serif" font-size="23" font-weight="400" fill="#0F1F5C" text-anchor="middle" font-style="italic" textLength="44" lengthAdjust="spacingAndGlyphs" >Dove</text><text x="30" y="124" font-family="Georgia,'Times New Roman','Noto Serif',serif" font-size="8.5" font-weight="700" fill="#B8964A" text-anchor="middle" >advanced</text><text x="30" y="134" font-family="Georgia,'Times New Roman','Noto Serif',serif" font-size="8.5" font-weight="700" fill="#B8964A" text-anchor="middle" >care</text><rect x="8" y="139" width="44" height="9" rx="4.5" fill="#5BA83A" /><text x="30" y="145.5" font-family="'Helvetica Neue',Helvetica,Arial,Roboto,sans-serif" font-size="5.4" font-weight="500" fill="#fff" text-anchor="middle" >cool essentials</text><g transform="translate(22 176) scale(1)"><path d="M-17 6C-17 -9 -3 -15 9 -11C17 -8 19 2 12 8C6 13 -9 14 -17 6Z" fill="#fff" stroke="#D9DEE6" stroke-width=".8"/><path d="M-13 7C-6 -2 4 -6 14 -4" fill="none" stroke="#D9DEE6" stroke-width="1.1"/><path d="M-4 -8C2 -10 8 -9 11 -6" fill="none" stroke="#fff" stroke-width="1.6"/></g><circle cx="36" cy="184" r="9" fill="#4F8F2E"/><circle cx="36" cy="184" r="7.74" fill="#BFE08A"/><circle cx="36" cy="184" r="5.58" fill="#DDEFB7"/><ellipse cx="40.05" cy="184.00" rx="1" ry=".6" fill="#F4F9E4"/><ellipse cx="38.03" cy="187.51" rx="1" ry=".6" fill="#F4F9E4"/><ellipse cx="33.98" cy="187.51" rx="1" ry=".6" fill="#F4F9E4"/><ellipse cx="31.95" cy="184.00" rx="1" ry=".6" fill="#F4F9E4"/><ellipse cx="33.97" cy="180.49" rx="1" ry=".6" fill="#F4F9E4"/><ellipse cx="38.02" cy="180.49" rx="1" ry=".6" fill="#F4F9E4"/><circle cx="24" cy="196" r="7" fill="#4F8F2E"/><circle cx="24" cy="196" r="6.02" fill="#BFE08A"/><circle cx="24" cy="196" r="4.34" fill="#DDEFB7"/><ellipse cx="27.15" cy="196.00" rx="1" ry=".6" fill="#F4F9E4"/><ellipse cx="25.58" cy="198.73" rx="1" ry=".6" fill="#F4F9E4"/><ellipse cx="22.43" cy="198.73" rx="1" ry=".6" fill="#F4F9E4"/><ellipse cx="20.85" cy="196.00" rx="1" ry=".6" fill="#F4F9E4"/><ellipse cx="22.42" cy="193.27" rx="1" ry=".6" fill="#F4F9E4"/><ellipse cx="25.57" cy="193.27" rx="1" ry=".6" fill="#F4F9E4"/><path d="M0 0C3 -3.5 8 -3.5 10 0C8 3.5 3 3.5 0 0Z" fill="#3E8B3A" transform="translate(38 166) rotate(-70)"/><text x="30" y="250" font-family="'Helvetica Neue',Helvetica,Arial,Roboto,sans-serif" font-size="4" font-weight="400" fill="#8A8A8A" text-anchor="middle" >antiperspirant deodorant</text><text x="30" y="257" font-family="'Helvetica Neue',Helvetica,Arial,Roboto,sans-serif" font-size="3.3" font-weight="400" fill="#8A8A8A" text-anchor="middle" >NET WT 3.8 OZ (107g)</text><rect x="4" y="54" width="52" height="236" fill="url(#dovdsg4)" /></svg>