<svg xmlns="http://www.w3.org/2000/svg" viewBox="-2 -2 214 404"><defs><linearGradient id="EOS-WASH-VC-473g1" x1="0" y1="0" x2="1" y2="0"><stop offset="0" stop-color="#aeaec2"/><stop offset="0.08" stop-color="#c9c9e0"/><stop offset="0.27" stop-color="#e0e0f6"/><stop offset="0.36" stop-color="#e2e2f6"/><stop offset="0.5" stop-color="#dbdbf4"/><stop offset="0.8" stop-color="#d0d0e8"/><stop offset="0.94" stop-color="#bbbbd1"/><stop offset="1" stop-color="#a6a6b9"/></linearGradient><linearGradient id="EOS-WASH-VC-473g2" x1="0" y1="0" x2="1" y2="0"><stop offset="0" stop-color="#a3115c"/><stop offset="0.08" stop-color="#c71471"/><stop offset="0.27" stop-color="#e64598"/><stop offset="0.36" stop-color="#e856a2"/><stop offset="0.5" stop-color="#E0177F"/><stop offset="0.8" stop-color="#d21677"/><stop offset="0.94" stop-color="#b51367"/><stop offset="1" stop-color="#981056"/></linearGradient><linearGradient id="EOS-WASH-VC-473g3" x1="0" y1="0" x2="1" y2="0"><stop offset="0" stop-color="#9a9abf"/><stop offset="0.08" stop-color="#afafd9"/><stop offset="0.27" stop-color="#c4c4ed"/><stop offset="0.36" stop-color="#c6c6ed"/><stop offset="0.5" stop-color="#BEBEEB"/><stop offset="0.8" stop-color="#b6b6e1"/><stop offset="0.94" stop-color="#a5a5cc"/><stop offset="1" stop-color="#9494b7"/></linearGradient><clipPath id="EOS-WASH-VC-473c4"><path d="M72 40L138 40C186 40 210 74 210 150L210 326C210 384 190 400 146 400L64 400C20 400 0 384 0 326L0 150C0 74 24 40 72 40Z" fill="#000" /></clipPath><linearGradient id="EOS-WASH-VC-473g5" x1="0" y1="0" x2="1" y2="0"><stop offset="0" stop-color="#000" stop-opacity="0.22399999999999998"/><stop offset="0.1" stop-color="#000" stop-opacity="0.06999999999999999"/><stop offset="0.3" stop-color="#fff" stop-opacity="0.11199999999999999"/><stop offset="0.38" stop-color="#fff" stop-opacity="0.06999999999999999"/><stop offset="0.55" stop-color="#000" stop-opacity="0"/><stop offset="0.85" stop-color="#000" stop-opacity="0.06999999999999999"/><stop offset="1" stop-color="#000" stop-opacity="0.252"/></linearGradient><linearGradient id="EOS-WASH-VC-473g6" x1="0" y1="0" x2="1" y2="0"><stop offset="0" stop-color="#fff" stop-opacity="0"/><stop offset="0.5" stop-color="#fff" stop-opacity="0.2"/><stop offset="1" stop-color="#fff" stop-opacity="0"/></linearGradient></defs><rect x="64" y="10" width="82" height="38" rx="4" fill="url(#EOS-WASH-VC-473g1)" /><path d="M64 12Q64 0 76 0L134 0Q146 0 146 12L146 17Q124 17 113 21Q105 25 97 21Q86 17 64 17Z" fill="url(#EOS-WASH-VC-473g2)" /><path d="M72 40L138 40C186 40 210 74 210 150L210 326C210 384 190 400 146 400L64 400C20 400 0 384 0 326L0 150C0 74 24 40 72 40Z" fill="url(#EOS-WASH-VC-473g3)" /><g clip-path="url(#EOS-WASH-VC-473c4)"><ellipse cx="163" cy="318" rx="38" ry="62" transform="rotate(16 163 318)" fill="#cbcbef"/><ellipse cx="168" cy="326" rx="29" ry="50" transform="rotate(16 168 326)" fill="#c3c3ed"/><circle cx="105" cy="116" r="41" fill="#E0177F"/><circle cx="105" cy="116" r="37" fill="none" stroke="#fff" stroke-width="1.3" stroke-dasharray="53 5.1" stroke-dashoffset="-2.5"/><text x="105" y="124" font-family="'Helvetica Neue',Helvetica,Arial,Roboto,sans-serif" font-size="33" font-weight="300" fill="#fff" text-anchor="middle" textLength="50" lengthAdjust="spacingAndGlyphs" >eos</text><text x="105" y="140" font-family="'Helvetica Neue',Helvetica,Arial,Roboto,sans-serif" font-size="7.5" font-weight="700" fill="#fff" text-anchor="middle" >evolution of</text><text x="105" y="149" font-family="'Helvetica Neue',Helvetica,Arial,Roboto,sans-serif" font-size="7.5" font-weight="700" fill="#fff" text-anchor="middle" >smooth®</text><text x="36" y="178" font-family="'Helvetica Neue',Helvetica,Arial,Roboto,sans-serif" font-size="11.5" font-weight="700" fill="#3D3A8C" text-anchor="start" >shea better™</text><text x="36" y="198" font-family="Georgia,'Times New Roman','Noto Serif',serif" font-size="21" font-weight="700" fill="#E3EA2F" text-anchor="start" textLength="102" lengthAdjust="spacingAndGlyphs" >Cashmere</text><text x="36" y="215" font-family="'Helvetica Neue',Helvetica,Arial,Roboto,sans-serif" font-size="14.5" font-weight="400" fill="#3D3A8C" text-anchor="start" letter-spacing="0.6" >BODY WASH</text><rect x="35" y="221" width="136" height="15" rx="7.5" fill="#E3EA2F" /><text x="103" y="232.5" font-family="'Helvetica Neue',Helvetica,Arial,Roboto,sans-serif" font-size="10.5" font-weight="700" fill="#3D3A8C" text-anchor="middle" >vanilla cashmere</text><text x="36" y="252" font-family="'Helvetica Neue',Helvetica,Arial,Roboto,sans-serif" font-size="9.3" font-weight="400" fill="#3D3A8C" text-anchor="start" >gentle cleansing + pH-balanced</text><ellipse cx="48" cy="269.15" rx="3.15" ry="4.2" fill="#E3EA2F" transform="rotate(0 48 273)"/><ellipse cx="48" cy="269.15" rx="3.15" ry="4.2" fill="#E3EA2F" transform="rotate(72 48 273)"/><ellipse cx="48" cy="269.15" rx="3.15" ry="4.2" fill="#E3EA2F" transform="rotate(144 48 273)"/><ellipse cx="48" cy="269.15" rx="3.15" ry="4.2" fill="#E3EA2F" transform="rotate(216 48 273)"/><ellipse cx="48" cy="269.15" rx="3.15" ry="4.2" fill="#E3EA2F" transform="rotate(288 48 273)"/><circle cx="48" cy="273" r="1.54" fill="#888c1c"/><circle cx="49" cy="322" r="14" fill="none" stroke="#3D3A8C" stroke-width=".6" stroke-dasharray="1.6 1.4"/><text x="49" y="321" font-family="'Helvetica Neue',Helvetica,Arial,Roboto,sans-serif" font-size="5.6" font-weight="700" fill="#3D3A8C" text-anchor="middle" >natural</text><text x="49" y="328" font-family="'Helvetica Neue',Helvetica,Arial,Roboto,sans-serif" font-size="5.6" font-weight="700" fill="#3D3A8C" text-anchor="middle" >shea</text><circle cx="87" cy="322" r="14" fill="none" stroke="#3D3A8C" stroke-width=".6" stroke-dasharray="1.6 1.4"/><text x="87" y="321" font-family="'Helvetica Neue',Helvetica,Arial,Roboto,sans-serif" font-size="5.6" font-weight="700" fill="#3D3A8C" text-anchor="middle" >sensitive</text><text x="87" y="328" font-family="'Helvetica Neue',Helvetica,Arial,Roboto,sans-serif" font-size="5.6" font-weight="700" fill="#3D3A8C" text-anchor="middle" >skin</text><text x="36" y="356" font-family="'Helvetica Neue',Helvetica,Arial,Roboto,sans-serif" font-size="9" font-weight="400" fill="#3D3A8C" text-anchor="start" >16 FL. OZ. (473mL)</text><rect x="0" y="40" width="210" height="360" fill="url(#EOS-WASH-VC-473g5)" /><rect x="24" y="90" width="14" height="230" rx="7" fill="url(#EOS-WASH-VC-473g6)" /></g></svg>