<svg xmlns="http://www.w3.org/2000/svg" viewBox="-2 -2 88 294"><defs><linearGradient id="lus-rmc-sh-1lg1" x1="0" y1="0" x2="1" y2="0"><stop offset="0" stop-color="#0f0f0f"/><stop offset="0.08" stop-color="#121212"/><stop offset="0.27" stop-color="#4f4f4f"/><stop offset="0.36" stop-color="#646464"/><stop offset="0.5" stop-color="#151515"/><stop offset="0.8" stop-color="#131313"/><stop offset="0.94" stop-color="#101010"/><stop offset="1" stop-color="#0d0d0d"/></linearGradient><linearGradient id="lus-rmc-sh-1lg2" x1="0" y1="0" x2="1" y2="0"><stop offset="0" stop-color="#0f0f0f"/><stop offset="0.08" stop-color="#121212"/><stop offset="0.27" stop-color="#494949"/><stop offset="0.36" stop-color="#5c5c5c"/><stop offset="0.5" stop-color="#151515"/><stop offset="0.8" stop-color="#131313"/><stop offset="0.94" stop-color="#101010"/><stop offset="1" stop-color="#0d0d0d"/></linearGradient><linearGradient id="lus-rmc-sh-1lg3" x1="0" y1="0" x2="0" y2="1"><stop offset="0" stop-color="#383838"/><stop offset="1" stop-color="#101010"/></linearGradient><linearGradient id="lus-rmc-sh-1lg4" x1="0" y1="0" x2="1" y2="0"><stop offset="0" stop-color="#89a587"/><stop offset="0.08" stop-color="#9cbb99"/><stop offset="0.27" stop-color="#b5d2b2"/><stop offset="0.36" stop-color="#b9d5b7"/><stop offset="0.5" stop-color="#A9CBA6"/><stop offset="0.8" stop-color="#a2c29f"/><stop offset="0.94" stop-color="#93b090"/><stop offset="1" stop-color="#849e81"/></linearGradient><clipPath id="lus-rmc-sh-1lc5"><path d="M27 64L57 64C71.85 64 84 79.3 84 98L84 280Q84 290 74 290L10 290Q0 290 0 280L0 98C0 79.3 12.15 64 27 64Z" fill="#000" /></clipPath><linearGradient id="lus-rmc-sh-1lg6" x1="0" y1="0" x2="1" y2="0"><stop offset="0" stop-color="#000" stop-opacity="0.192"/><stop offset="0.1" stop-color="#000" stop-opacity="0.06"/><stop offset="0.3" stop-color="#fff" stop-opacity="0.096"/><stop offset="0.38" stop-color="#fff" stop-opacity="0.06"/><stop offset="0.55" stop-color="#000" stop-opacity="0"/><stop offset="0.85" stop-color="#000" stop-opacity="0.06"/><stop offset="1" stop-color="#000" stop-opacity="0.216"/></linearGradient><linearGradient id="lus-rmc-sh-1lg7" x1="0" y1="0" x2="1" y2="0"><stop offset="0" stop-color="#fff" stop-opacity="0"/><stop offset="0.5" stop-color="#fff" stop-opacity="0.35"/><stop offset="1" stop-color="#fff" stop-opacity="0"/></linearGradient></defs><rect x="27" y="50" width="30" height="18" rx="3" fill="url(#lus-rmc-sh-1lg1)" /><rect x="28" y="53" width="28" height="0.8" fill="#0f0f0f" opacity=".5"/><rect x="28" y="56" width="28" height="0.8" fill="#0f0f0f" opacity=".5"/><rect x="28" y="59" width="28" height="0.8" fill="#0f0f0f" opacity=".5"/><rect x="28" y="62" width="28" height="0.8" fill="#0f0f0f" opacity=".5"/><rect x="28" y="65" width="28" height="0.8" fill="#0f0f0f" opacity=".5"/><rect x="38" y="38" width="8" height="12" fill="url(#lus-rmc-sh-1lg2)" /><rect x="27" y="26" width="30" height="12" rx="4" fill="url(#lus-rmc-sh-1lg1)" /><rect x="3" y="28" width="30" height="6" rx="3" fill="url(#lus-rmc-sh-1lg3)" /><path d="M27 64L57 64C71.85 64 84 79.3 84 98L84 280Q84 290 74 290L10 290Q0 290 0 280L0 98C0 79.3 12.15 64 27 64Z" fill="url(#lus-rmc-sh-1lg4)" /><g clip-path="url(#lus-rmc-sh-1lc5)"><circle cx="22.439999999999998" cy="142" r="9" fill="#262626"/><text x="22.44" y="146.5" font-family="'Snell Roundhand','Brush Script MT','Segoe Script',cursive" font-size="13" font-weight="700" fill="#DCEBD9" text-anchor="middle" >L</text><text x="13.44" y="161" font-family="Georgia,'Times New Roman','Noto Serif',serif" font-size="6.6" font-weight="400" fill="#262626" text-anchor="start" letter-spacing="2.2" textLength="38" lengthAdjust="spacingAndGlyphs" >LUSETA</text><text x="53.44" y="158" font-family="'Helvetica Neue',Helvetica,Arial,Roboto,sans-serif" font-size="3" font-weight="400" fill="#262626" text-anchor="start" >®</text><text x="13.44" y="178" font-family="'Helvetica Neue',Helvetica,Arial,Roboto,sans-serif" font-size="8.6" font-weight="700" fill="#262626" text-anchor="start" textLength="48" lengthAdjust="spacingAndGlyphs" >ROSEMARY</text><text x="13.44" y="187.6" font-family="'Helvetica Neue',Helvetica,Arial,Roboto,sans-serif" font-size="8.6" font-weight="700" fill="#262626" text-anchor="start" textLength="55.44" lengthAdjust="spacingAndGlyphs" >MINT COMPLEX</text><text x="13.44" y="198.2" font-family="'Helvetica Neue',Helvetica,Arial,Roboto,sans-serif" font-size="6" font-weight="700" fill="#262626" text-anchor="start" textLength="58.8" lengthAdjust="spacingAndGlyphs" >STRENGTHENING SHAMPOO</text><text x="13.44" y="205.2" font-family="'Helvetica Neue',Helvetica,Arial,Roboto,sans-serif" font-size="4.2" font-weight="400" fill="#262626" text-anchor="start" textLength="55.44" lengthAdjust="spacingAndGlyphs" >SHAMPOOING FORTIFIANT</text><text x="13.44" y="210.4" font-family="'Helvetica Neue',Helvetica,Arial,Roboto,sans-serif" font-size="4.2" font-weight="400" fill="#262626" text-anchor="start" textLength="52.25" lengthAdjust="spacingAndGlyphs" >CHAMPÚ FORTALECEDOR</text><text x="13.44" y="218.6" font-family="Georgia,'Times New Roman','Noto Serif',serif" font-size="4.4" font-weight="400" fill="#262626" text-anchor="start" font-style="italic" textLength="43.68" lengthAdjust="spacingAndGlyphs" >Infused with Rosemary,</text><text x="13.44" y="224" font-family="Georgia,'Times New Roman','Noto Serif',serif" font-size="4.4" font-weight="400" fill="#262626" text-anchor="start" font-style="italic" textLength="43.68" lengthAdjust="spacingAndGlyphs" >Peppermint, Biotin &amp; Argan Oil</text><text x="13.44" y="232.4" font-family="'Helvetica Neue',Helvetica,Arial,Roboto,sans-serif" font-size="3.9" font-weight="700" fill="#262626" text-anchor="start" font-style="italic" >COLOR SAFE</text><text x="13.44" y="237.3" font-family="'Helvetica Neue',Helvetica,Arial,Roboto,sans-serif" font-size="3.9" font-weight="700" fill="#262626" text-anchor="start" font-style="italic" >FREE OF SULFATES</text><text x="13.44" y="242.2" font-family="'Helvetica Neue',Helvetica,Arial,Roboto,sans-serif" font-size="3.9" font-weight="700" fill="#262626" text-anchor="start" font-style="italic" >PARABENS &amp; GLUTEN</text><text x="13.44" y="249.1" font-family="Georgia,'Times New Roman','Noto Serif',serif" font-size="3.9" font-weight="400" fill="#262626" text-anchor="start" font-style="italic" >For all hair types</text><text x="13.44" y="259.1" font-family="'Helvetica Neue',Helvetica,Arial,Roboto,sans-serif" font-size="4.2" font-weight="400" fill="#262626" text-anchor="start" >33.8 FL.OZ. - 1 L℮</text><g fill="none" stroke="#262626" stroke-width=".8"><path d="M65.52 264L67.52 228"/><path d="M65.5 260l-6 -4M65.8 258l6 -4"/><path d="M65.6 255l-6 -4M65.9 253l6 -4"/><path d="M65.7 250l-6 -4M66.0 248l6 -4"/><path d="M65.8 245l-6 -4M66.1 243l6 -4"/><path d="M65.9 240l-6 -4M66.2 238l6 -4"/><path d="M66.0 235l-6 -4M66.3 233l6 -4"/><path d="M66.1 230l-6 -4M66.4 228l6 -4"/></g><rect x="0" y="64" width="84" height="226" fill="url(#lus-rmc-sh-1lg6)" /><rect x="11" y="94" width="6" height="180" rx="3" fill="url(#lus-rmc-sh-1lg7)" /></g></svg>