<svg xmlns="http://www.w3.org/2000/svg" viewBox="-2 -2 180 294"><defs><linearGradient id="lus-ker-duo-1lg1" x1="0" y1="0" x2="1" y2="0"><stop offset="0" stop-color="#0f0f0f"/><stop offset="0.08" stop-color="#121212"/><stop offset="0.27" stop-color="#4f4f4f"/><stop offset="0.36" stop-color="#646464"/><stop offset="0.5" stop-color="#151515"/><stop offset="0.8" stop-color="#131313"/><stop offset="0.94" stop-color="#101010"/><stop offset="1" stop-color="#0d0d0d"/></linearGradient><linearGradient id="lus-ker-duo-1lg2" x1="0" y1="0" x2="1" y2="0"><stop offset="0" stop-color="#0f0f0f"/><stop offset="0.08" stop-color="#121212"/><stop offset="0.27" stop-color="#494949"/><stop offset="0.36" stop-color="#5c5c5c"/><stop offset="0.5" stop-color="#151515"/><stop offset="0.8" stop-color="#131313"/><stop offset="0.94" stop-color="#101010"/><stop offset="1" stop-color="#0d0d0d"/></linearGradient><linearGradient id="lus-ker-duo-1lg3" x1="0" y1="0" x2="0" y2="1"><stop offset="0" stop-color="#383838"/><stop offset="1" stop-color="#101010"/></linearGradient><linearGradient id="lus-ker-duo-1lg4" x1="0" y1="0" x2="1" y2="0"><stop offset="0" stop-color="#bd2b40"/><stop offset="0.08" stop-color="#d63149"/><stop offset="0.27" stop-color="#eb5067"/><stop offset="0.36" stop-color="#ec5a70"/><stop offset="0.5" stop-color="#E8354F"/><stop offset="0.8" stop-color="#de334c"/><stop offset="0.94" stop-color="#c92e45"/><stop offset="1" stop-color="#b5293e"/></linearGradient><clipPath id="lus-ker-duo-1lc5"><path d="M27 64L57 64C71.85 64 84 79.3 84 98L84 280Q84 290 74 290L10 290Q0 290 0 280L0 98C0 79.3 12.15 64 27 64Z" fill="#000" /></clipPath><linearGradient id="lus-ker-duo-1lg6" x1="0" y1="0" x2="1" y2="0"><stop offset="0" stop-color="#000" stop-opacity="0.192"/><stop offset="0.1" stop-color="#000" stop-opacity="0.06"/><stop offset="0.3" stop-color="#fff" stop-opacity="0.096"/><stop offset="0.38" stop-color="#fff" stop-opacity="0.06"/><stop offset="0.55" stop-color="#000" stop-opacity="0"/><stop offset="0.85" stop-color="#000" stop-opacity="0.06"/><stop offset="1" stop-color="#000" stop-opacity="0.216"/></linearGradient><linearGradient id="lus-ker-duo-1lg7" x1="0" y1="0" x2="1" y2="0"><stop offset="0" stop-color="#fff" stop-opacity="0"/><stop offset="0.5" stop-color="#fff" stop-opacity="0.35"/><stop offset="1" stop-color="#fff" stop-opacity="0"/></linearGradient><linearGradient id="lus-ker-duo-1lg8" x1="0" y1="0" x2="1" y2="0"><stop offset="0" stop-color="#0f0f0f"/><stop offset="0.08" stop-color="#121212"/><stop offset="0.27" stop-color="#4f4f4f"/><stop offset="0.36" stop-color="#646464"/><stop offset="0.5" stop-color="#151515"/><stop offset="0.8" stop-color="#131313"/><stop offset="0.94" stop-color="#101010"/><stop offset="1" stop-color="#0d0d0d"/></linearGradient><linearGradient id="lus-ker-duo-1lg9" x1="0" y1="0" x2="1" y2="0"><stop offset="0" stop-color="#0f0f0f"/><stop offset="0.08" stop-color="#121212"/><stop offset="0.27" stop-color="#494949"/><stop offset="0.36" stop-color="#5c5c5c"/><stop offset="0.5" stop-color="#151515"/><stop offset="0.8" stop-color="#131313"/><stop offset="0.94" stop-color="#101010"/><stop offset="1" stop-color="#0d0d0d"/></linearGradient><linearGradient id="lus-ker-duo-1lg10" x1="0" y1="0" x2="0" y2="1"><stop offset="0" stop-color="#383838"/><stop offset="1" stop-color="#101010"/></linearGradient><linearGradient id="lus-ker-duo-1lg11" x1="0" y1="0" x2="1" y2="0"><stop offset="0" stop-color="#bd2b40"/><stop offset="0.08" stop-color="#d63149"/><stop offset="0.27" stop-color="#eb5067"/><stop offset="0.36" stop-color="#ec5a70"/><stop offset="0.5" stop-color="#E8354F"/><stop offset="0.8" stop-color="#de334c"/><stop offset="0.94" stop-color="#c92e45"/><stop offset="1" stop-color="#b5293e"/></linearGradient><clipPath id="lus-ker-duo-1lc12"><path d="M119 64L149 64C163.85 64 176 79.3 176 98L176 280Q176 290 166 290L102 290Q92 290 92 280L92 98C92 79.3 104.15 64 119 64Z" fill="#000" /></clipPath><linearGradient id="lus-ker-duo-1lg13" x1="0" y1="0" x2="1" y2="0"><stop offset="0" stop-color="#000" stop-opacity="0.192"/><stop offset="0.1" stop-color="#000" stop-opacity="0.06"/><stop offset="0.3" stop-color="#fff" stop-opacity="0.096"/><stop offset="0.38" stop-color="#fff" stop-opacity="0.06"/><stop offset="0.55" stop-color="#000" stop-opacity="0"/><stop offset="0.85" stop-color="#000" stop-opacity="0.06"/><stop offset="1" stop-color="#000" stop-opacity="0.216"/></linearGradient><linearGradient id="lus-ker-duo-1lg14" x1="0" y1="0" x2="1" y2="0"><stop offset="0" stop-color="#fff" stop-opacity="0"/><stop offset="0.5" stop-color="#fff" stop-opacity="0.35"/><stop offset="1" stop-color="#fff" stop-opacity="0"/></linearGradient></defs><rect x="27" y="50" width="30" height="18" rx="3" fill="url(#lus-ker-duo-1lg1)" /><rect x="28" y="53" width="28" height="0.8" fill="#0f0f0f" opacity=".5"/><rect x="28" y="56" width="28" height="0.8" fill="#0f0f0f" opacity=".5"/><rect x="28" y="59" width="28" height="0.8" fill="#0f0f0f" opacity=".5"/><rect x="28" y="62" width="28" height="0.8" fill="#0f0f0f" opacity=".5"/><rect x="28" y="65" width="28" height="0.8" fill="#0f0f0f" opacity=".5"/><rect x="38" y="38" width="8" height="12" fill="url(#lus-ker-duo-1lg2)" /><rect x="27" y="26" width="30" height="12" rx="4" fill="url(#lus-ker-duo-1lg1)" /><rect x="3" y="28" width="30" height="6" rx="3" fill="url(#lus-ker-duo-1lg3)" /><path d="M27 64L57 64C71.85 64 84 79.3 84 98L84 280Q84 290 74 290L10 290Q0 290 0 280L0 98C0 79.3 12.15 64 27 64Z" fill="url(#lus-ker-duo-1lg4)" /><g clip-path="url(#lus-ker-duo-1lc5)"><circle cx="22.439999999999998" cy="142" r="9" fill="#FFFFFF"/><text x="22.44" y="146.5" font-family="'Snell Roundhand','Brush Script MT','Segoe Script',cursive" font-size="13" font-weight="700" fill="#E8354F" text-anchor="middle" >L</text><text x="13.44" y="161" font-family="Georgia,'Times New Roman','Noto Serif',serif" font-size="6.6" font-weight="400" fill="#FFFFFF" text-anchor="start" letter-spacing="2.2" textLength="38" lengthAdjust="spacingAndGlyphs" >LUSETA</text><text x="53.44" y="158" font-family="'Helvetica Neue',Helvetica,Arial,Roboto,sans-serif" font-size="3" font-weight="400" fill="#FFFFFF" text-anchor="start" >®</text><text x="13.44" y="178" font-family="Georgia,'Times New Roman','Noto Serif',serif" font-size="8.6" font-weight="700" fill="#FFFFFF" text-anchor="start" textLength="42" lengthAdjust="spacingAndGlyphs" >KERATIN</text><text x="13.44" y="188.6" font-family="'Helvetica Neue',Helvetica,Arial,Roboto,sans-serif" font-size="6" font-weight="700" fill="#FFFFFF" text-anchor="start" textLength="28.7" lengthAdjust="spacingAndGlyphs" >SHAMPOO</text><text x="13.44" y="195.6" font-family="'Helvetica Neue',Helvetica,Arial,Roboto,sans-serif" font-size="4.2" font-weight="400" fill="#FFFFFF" text-anchor="start" textLength="27.5" lengthAdjust="spacingAndGlyphs" >SHAMPOOING</text><text x="13.44" y="200.8" font-family="'Helvetica Neue',Helvetica,Arial,Roboto,sans-serif" font-size="4.2" font-weight="400" fill="#FFFFFF" text-anchor="start" textLength="16.5" lengthAdjust="spacingAndGlyphs" >CHAMPÚ</text><text x="13.44" y="209" font-family="Georgia,'Times New Roman','Noto Serif',serif" font-size="4.4" font-weight="400" fill="#FFFFFF" text-anchor="start" font-style="italic" textLength="24.2" lengthAdjust="spacingAndGlyphs" >Smoothing &amp;</text><text x="13.44" y="214.4" font-family="Georgia,'Times New Roman','Noto Serif',serif" font-size="4.4" font-weight="400" fill="#FFFFFF" text-anchor="start" font-style="italic" textLength="39.6" lengthAdjust="spacingAndGlyphs" >Nourishing Formula</text><text x="13.44" y="222.8" font-family="'Helvetica Neue',Helvetica,Arial,Roboto,sans-serif" font-size="3.9" font-weight="700" fill="#FFFFFF" text-anchor="start" font-style="italic" >COLOR SAFE</text><text x="13.44" y="227.7" font-family="'Helvetica Neue',Helvetica,Arial,Roboto,sans-serif" font-size="3.9" font-weight="700" fill="#FFFFFF" text-anchor="start" font-style="italic" >FREE OF SULFATES</text><text x="13.44" y="232.6" font-family="'Helvetica Neue',Helvetica,Arial,Roboto,sans-serif" font-size="3.9" font-weight="700" fill="#FFFFFF" text-anchor="start" font-style="italic" >PARABENS &amp; GLUTEN</text><text x="13.44" y="239.5" font-family="Georgia,'Times New Roman','Noto Serif',serif" font-size="3.9" font-weight="400" fill="#FFFFFF" text-anchor="start" font-style="italic" >For damaged &amp; dry hair</text><text x="13.44" y="249.5" font-family="'Helvetica Neue',Helvetica,Arial,Roboto,sans-serif" font-size="4.2" font-weight="400" fill="#FFFFFF" text-anchor="start" >33.8 FL.OZ. - 1 L℮</text><g fill="none" stroke="#FFFFFF" stroke-width=".7" transform="rotate(-18 65.52 246)"><path d="M65.52 268L65.52 226"/><ellipse cx="65.52" cy="236" rx="6" ry="10"/><ellipse cx="65.52" cy="235" rx="2.6" ry="4"/><path d="M65.52 246L59.519999999999996 241M65.52 246L71.52 241"/><path d="M65.52 250L59.519999999999996 245M65.52 250L71.52 245"/><path d="M65.52 254L59.519999999999996 249M65.52 254L71.52 249"/><path d="M65.52 258L59.519999999999996 253M65.52 258L71.52 253"/><path d="M65.52 262L59.519999999999996 257M65.52 262L71.52 257"/></g><rect x="0" y="64" width="84" height="226" fill="url(#lus-ker-duo-1lg6)" /><rect x="11" y="94" width="6" height="180" rx="3" fill="url(#lus-ker-duo-1lg7)" /></g><rect x="119" y="50" width="30" height="18" rx="3" fill="url(#lus-ker-duo-1lg8)" /><rect x="120" y="53" width="28" height="0.8" fill="#0f0f0f" opacity=".5"/><rect x="120" y="56" width="28" height="0.8" fill="#0f0f0f" opacity=".5"/><rect x="120" y="59" width="28" height="0.8" fill="#0f0f0f" opacity=".5"/><rect x="120" y="62" width="28" height="0.8" fill="#0f0f0f" opacity=".5"/><rect x="120" y="65" width="28" height="0.8" fill="#0f0f0f" opacity=".5"/><rect x="130" y="38" width="8" height="12" fill="url(#lus-ker-duo-1lg9)" /><rect x="119" y="26" width="30" height="12" rx="4" fill="url(#lus-ker-duo-1lg8)" /><rect x="95" y="28" width="30" height="6" rx="3" fill="url(#lus-ker-duo-1lg10)" /><path d="M119 64L149 64C163.85 64 176 79.3 176 98L176 280Q176 290 166 290L102 290Q92 290 92 280L92 98C92 79.3 104.15 64 119 64Z" fill="url(#lus-ker-duo-1lg11)" /><g clip-path="url(#lus-ker-duo-1lc12)"><circle cx="114.44" cy="142" r="9" fill="#FFFFFF"/><text x="114.44" y="146.5" font-family="'Snell Roundhand','Brush Script MT','Segoe Script',cursive" font-size="13" font-weight="700" fill="#E8354F" text-anchor="middle" >L</text><text x="105.44" y="161" font-family="Georgia,'Times New Roman','Noto Serif',serif" font-size="6.6" font-weight="400" fill="#FFFFFF" text-anchor="start" letter-spacing="2.2" textLength="38" lengthAdjust="spacingAndGlyphs" >LUSETA</text><text x="145.44" y="158" font-family="'Helvetica Neue',Helvetica,Arial,Roboto,sans-serif" font-size="3" font-weight="400" fill="#FFFFFF" text-anchor="start" >®</text><text x="105.44" y="178" font-family="Georgia,'Times New Roman','Noto Serif',serif" font-size="8.6" font-weight="700" fill="#FFFFFF" text-anchor="start" textLength="42" lengthAdjust="spacingAndGlyphs" >KERATIN</text><text x="105.44" y="188.6" font-family="'Helvetica Neue',Helvetica,Arial,Roboto,sans-serif" font-size="6" font-weight="700" fill="#FFFFFF" text-anchor="start" textLength="45.1" lengthAdjust="spacingAndGlyphs" >CONDITIONER</text><text x="105.44" y="195.6" font-family="'Helvetica Neue',Helvetica,Arial,Roboto,sans-serif" font-size="4.2" font-weight="400" fill="#FFFFFF" text-anchor="start" textLength="35.75" lengthAdjust="spacingAndGlyphs" >CONDITIONNEUR</text><text x="105.44" y="200.8" font-family="'Helvetica Neue',Helvetica,Arial,Roboto,sans-serif" font-size="4.2" font-weight="400" fill="#FFFFFF" text-anchor="start" textLength="38.5" lengthAdjust="spacingAndGlyphs" >ACONDICIONADOR</text><text x="105.44" y="209" font-family="Georgia,'Times New Roman','Noto Serif',serif" font-size="4.4" font-weight="400" fill="#FFFFFF" text-anchor="start" font-style="italic" textLength="24.2" lengthAdjust="spacingAndGlyphs" >Smoothing &amp;</text><text x="105.44" y="214.4" font-family="Georgia,'Times New Roman','Noto Serif',serif" font-size="4.4" font-weight="400" fill="#FFFFFF" text-anchor="start" font-style="italic" textLength="39.6" lengthAdjust="spacingAndGlyphs" >Nourishing Formula</text><text x="105.44" y="222.8" font-family="'Helvetica Neue',Helvetica,Arial,Roboto,sans-serif" font-size="3.9" font-weight="700" fill="#FFFFFF" text-anchor="start" font-style="italic" >COLOR SAFE</text><text x="105.44" y="227.7" font-family="'Helvetica Neue',Helvetica,Arial,Roboto,sans-serif" font-size="3.9" font-weight="700" fill="#FFFFFF" text-anchor="start" font-style="italic" >FREE OF SULFATES</text><text x="105.44" y="232.6" font-family="'Helvetica Neue',Helvetica,Arial,Roboto,sans-serif" font-size="3.9" font-weight="700" fill="#FFFFFF" text-anchor="start" font-style="italic" >PARABENS &amp; GLUTEN</text><text x="105.44" y="239.5" font-family="Georgia,'Times New Roman','Noto Serif',serif" font-size="3.9" font-weight="400" fill="#FFFFFF" text-anchor="start" font-style="italic" >For damaged &amp; dry hair</text><text x="105.44" y="249.5" font-family="'Helvetica Neue',Helvetica,Arial,Roboto,sans-serif" font-size="4.2" font-weight="400" fill="#FFFFFF" text-anchor="start" >33.8 FL.OZ. - 1 L℮</text><g fill="none" stroke="#FFFFFF" stroke-width=".7" transform="rotate(-18 157.51999999999998 246)"><path d="M157.51999999999998 268L157.51999999999998 226"/><ellipse cx="157.51999999999998" cy="236" rx="6" ry="10"/><ellipse cx="157.51999999999998" cy="235" rx="2.6" ry="4"/><path d="M157.51999999999998 246L151.51999999999998 241M157.51999999999998 246L163.51999999999998 241"/><path d="M157.51999999999998 250L151.51999999999998 245M157.51999999999998 250L163.51999999999998 245"/><path d="M157.51999999999998 254L151.51999999999998 249M157.51999999999998 254L163.51999999999998 249"/><path d="M157.51999999999998 258L151.51999999999998 253M157.51999999999998 258L163.51999999999998 253"/><path d="M157.51999999999998 262L151.51999999999998 257M157.51999999999998 262L163.51999999999998 257"/></g><rect x="92" y="64" width="84" height="226" fill="url(#lus-ker-duo-1lg13)" /><rect x="103" y="94" width="6" height="180" rx="3" fill="url(#lus-ker-duo-1lg14)" /></g></svg>