<svg xmlns="http://www.w3.org/2000/svg" viewBox="-2 -2 114 284"><defs><linearGradient id="lus-cp-bw-1lg1" x1="0" y1="0" x2="1" y2="0"><stop offset="0" stop-color="#0f0f0f"/><stop offset="0.08" stop-color="#121212"/><stop offset="0.27" stop-color="#4f4f4f"/><stop offset="0.36" stop-color="#646464"/><stop offset="0.5" stop-color="#151515"/><stop offset="0.8" stop-color="#131313"/><stop offset="0.94" stop-color="#101010"/><stop offset="1" stop-color="#0d0d0d"/></linearGradient><linearGradient id="lus-cp-bw-1lg2" x1="0" y1="0" x2="1" y2="0"><stop offset="0" stop-color="#0f0f0f"/><stop offset="0.08" stop-color="#121212"/><stop offset="0.27" stop-color="#494949"/><stop offset="0.36" stop-color="#5c5c5c"/><stop offset="0.5" stop-color="#151515"/><stop offset="0.8" stop-color="#131313"/><stop offset="0.94" stop-color="#101010"/><stop offset="1" stop-color="#0d0d0d"/></linearGradient><linearGradient id="lus-cp-bw-1lg3" x1="0" y1="0" x2="0" y2="1"><stop offset="0" stop-color="#383838"/><stop offset="1" stop-color="#101010"/></linearGradient><linearGradient id="lus-cp-bw-1lg4" x1="0" y1="0" x2="1" y2="0"><stop offset="0" stop-color="#148678"/><stop offset="0.12" stop-color="#1BB3A0"/><stop offset="0.3" stop-color="#54c6b8"/><stop offset="0.5" stop-color="#1BB3A0"/><stop offset="0.88" stop-color="#18a190"/><stop offset="1" stop-color="#137d70"/></linearGradient><clipPath id="lus-cp-bw-1lc5"><path d="M38 60L72 60L96 62Q110 64 110 78L110 266Q110 280 96 280L14 280Q0 280 0 266L0 78Q0 64 14 62Z" fill="#000" /></clipPath><linearGradient id="lus-cp-bw-1lg6" x1="0" y1="0" x2="1" y2="0"><stop offset="0" stop-color="#fff" stop-opacity="0"/><stop offset="0.5" stop-color="#fff" stop-opacity="0.55"/><stop offset="1" stop-color="#fff" stop-opacity="0"/></linearGradient></defs><rect x="40" y="46" width="30" height="18" rx="3" fill="url(#lus-cp-bw-1lg1)" /><rect x="41" y="49" width="28" height="0.8" fill="#0f0f0f" opacity=".5"/><rect x="41" y="52" width="28" height="0.8" fill="#0f0f0f" opacity=".5"/><rect x="41" y="55" width="28" height="0.8" fill="#0f0f0f" opacity=".5"/><rect x="41" y="58" width="28" height="0.8" fill="#0f0f0f" opacity=".5"/><rect x="41" y="61" width="28" height="0.8" fill="#0f0f0f" opacity=".5"/><rect x="51" y="34" width="8" height="12" fill="url(#lus-cp-bw-1lg2)" /><rect x="40" y="22" width="30" height="12" rx="4" fill="url(#lus-cp-bw-1lg1)" /><rect x="16" y="24" width="30" height="6" rx="3" fill="url(#lus-cp-bw-1lg3)" /><path d="M38 60L72 60L96 62Q110 64 110 78L110 266Q110 280 96 280L14 280Q0 280 0 266L0 78Q0 64 14 62Z" fill="url(#lus-cp-bw-1lg4)" /><g clip-path="url(#lus-cp-bw-1lc5)"><rect x="53" y="60" width="4" height="214" fill="#169383" opacity=".6"/><circle cx="33.32" cy="130" r="9" fill="#FFFFFF"/><text x="33.32" y="134.5" font-family="'Snell Roundhand','Brush Script MT','Segoe Script',cursive" font-size="13" font-weight="700" fill="#1BB3A0" text-anchor="middle" >L</text><text x="24.32" y="149" font-family="Georgia,'Times New Roman','Noto Serif',serif" font-size="6.6" font-weight="400" fill="#FFFFFF" text-anchor="start" letter-spacing="2.2" textLength="38" lengthAdjust="spacingAndGlyphs" >LUSETA</text><text x="64.32" y="146" font-family="'Helvetica Neue',Helvetica,Arial,Roboto,sans-serif" font-size="3" font-weight="400" fill="#FFFFFF" text-anchor="start" >®</text><text x="24.32" y="166" font-family="'Helvetica Neue',Helvetica,Arial,Roboto,sans-serif" font-size="8.6" font-weight="700" fill="#FFFFFF" text-anchor="start" textLength="48" lengthAdjust="spacingAndGlyphs" >COLLAGEN</text><text x="24.32" y="175.6" font-family="'Helvetica Neue',Helvetica,Arial,Roboto,sans-serif" font-size="8.6" font-weight="700" fill="#FFFFFF" text-anchor="start" textLength="48" lengthAdjust="spacingAndGlyphs" >PEPTIDES</text><text x="24.32" y="186.2" font-family="'Helvetica Neue',Helvetica,Arial,Roboto,sans-serif" font-size="6" font-weight="700" fill="#FFFFFF" text-anchor="start" textLength="36.9" lengthAdjust="spacingAndGlyphs" >BODY WASH</text><text x="24.32" y="193.2" font-family="'Helvetica Neue',Helvetica,Arial,Roboto,sans-serif" font-size="4.2" font-weight="400" fill="#FFFFFF" text-anchor="start" textLength="27.5" lengthAdjust="spacingAndGlyphs" >GEL DOUCHE</text><text x="24.32" y="198.4" font-family="'Helvetica Neue',Helvetica,Arial,Roboto,sans-serif" font-size="4.2" font-weight="400" fill="#FFFFFF" text-anchor="start" textLength="33" lengthAdjust="spacingAndGlyphs" >GEL DE DUCHA</text><text x="24.32" y="206.6" font-family="Georgia,'Times New Roman','Noto Serif',serif" font-size="4.4" font-weight="400" fill="#FFFFFF" text-anchor="start" font-style="italic" textLength="30.8" lengthAdjust="spacingAndGlyphs" >Rejuvenating &amp;</text><text x="24.32" y="212" font-family="Georgia,'Times New Roman','Noto Serif',serif" font-size="4.4" font-weight="400" fill="#FFFFFF" text-anchor="start" font-style="italic" textLength="37.4" lengthAdjust="spacingAndGlyphs" >Hydrating Formula</text><text x="24.32" y="220.4" font-family="'Helvetica Neue',Helvetica,Arial,Roboto,sans-serif" font-size="3.9" font-weight="700" fill="#FFFFFF" text-anchor="start" font-style="italic" >FREE OF SULFATES</text><text x="24.32" y="225.3" font-family="'Helvetica Neue',Helvetica,Arial,Roboto,sans-serif" font-size="3.9" font-weight="700" fill="#FFFFFF" text-anchor="start" font-style="italic" >PARABENS &amp; GLUTEN</text><text x="24.32" y="232.2" font-family="Georgia,'Times New Roman','Noto Serif',serif" font-size="3.9" font-weight="400" fill="#FFFFFF" text-anchor="start" font-style="italic" >For all skin types</text><text x="24.32" y="242.2" font-family="'Helvetica Neue',Helvetica,Arial,Roboto,sans-serif" font-size="4.2" font-weight="400" fill="#FFFFFF" text-anchor="start" >33.8 FL.OZ. - 1 L℮</text><polyline points="79.56,240 84.56,232 91.56,236 95.56,227 89.56,222 81.56,224" fill="none" stroke="#FFFFFF" stroke-width=".8"/><circle cx="79.56" cy="240" r="2.2" fill="none" stroke="#FFFFFF" stroke-width=".8"/><circle cx="84.56" cy="232" r="2.2" fill="none" stroke="#FFFFFF" stroke-width=".8"/><circle cx="91.56" cy="236" r="2.2" fill="none" stroke="#FFFFFF" stroke-width=".8"/><circle cx="95.56" cy="227" r="2.2" fill="none" stroke="#FFFFFF" stroke-width=".8"/><circle cx="89.56" cy="222" r="2.2" fill="none" stroke="#FFFFFF" stroke-width=".8"/><circle cx="81.56" cy="224" r="2.2" fill="none" stroke="#FFFFFF" stroke-width=".8"/><rect x="9" y="80" width="6" height="190" rx="3" fill="url(#lus-cp-bw-1lg6)" /></g></svg>