<svg xmlns="http://www.w3.org/2000/svg" viewBox="-2 -2 244 254"><defs><linearGradient id="mksatSg1" x1="0" y1="0" x2="1" y2="1"><stop offset="0" stop-color="#7f8287"/><stop offset="0.35" stop-color="#dee1e5"/><stop offset="0.6" stop-color="#C3C8CF"/><stop offset="1" stop-color="#75787c"/></linearGradient><linearGradient id="mksatSg2" x1="0" y1="0" x2="1" y2="0"><stop offset="0" stop-color="#131315"/><stop offset="1" stop-color="#171719"/></linearGradient><linearGradient id="mksatSg3" x1="0" y1="0" x2="1" y2="0"><stop offset="0" stop-color="#171719"/><stop offset="1" stop-color="#131315"/></linearGradient><pattern id="mksatSp4" width="3" height="3" patternUnits="userSpaceOnUse" patternTransform="rotate(35)"><path d="M0 0L0 3M0 0L3 0" stroke="#3f3f42" stroke-width=".35" opacity=".55"/></pattern><linearGradient id="mksatSg5" x1="0" y1="0" x2="1" y2="0"><stop offset="0" stop-color="#000" stop-opacity="0.11199999999999999"/><stop offset="0.1" stop-color="#000" stop-opacity="0.034999999999999996"/><stop offset="0.3" stop-color="#fff" stop-opacity="0.055999999999999994"/><stop offset="0.38" stop-color="#fff" stop-opacity="0.034999999999999996"/><stop offset="0.55" stop-color="#000" stop-opacity="0"/><stop offset="0.85" stop-color="#000" stop-opacity="0.034999999999999996"/><stop offset="1" stop-color="#000" stop-opacity="0.126"/></linearGradient></defs><path d="M24 86L216 86L216 110L24 110Z" fill="#18181b" /><path d="M18 96L2 88L12 240L22 250Z" fill="url(#mksatSg2)" /><path d="M222 96L238 88L228 240L218 250Z" fill="url(#mksatSg3)" /><rect x="26" y="90" width="188" height="4" rx="1" fill="url(#mksatSg1)" /><path d="M68 108C68 -18 192 -18 192 108" fill="none" stroke="#161618" stroke-width="11" stroke-linecap="round" opacity="0.75"/><path d="M66 104C66 -10 194 -10 194 104" fill="none" stroke="#fff" stroke-width="1.4" opacity=".18"/><path d="M58 108C58 -18 182 -18 182 108" fill="none" stroke="#1b1b1e" stroke-width="11" stroke-linecap="round" opacity="1"/><path d="M56 104C56 -10 184 -10 184 104" fill="none" stroke="#fff" stroke-width="1.4" opacity=".18"/><path d="M18 100L222 100L222 242Q222 250 214 250L26 250Q18 250 18 242Z" fill="#1B1B1E" /><path d="M18 100L222 100L222 242Q222 250 214 250L26 250Q18 250 18 242Z" fill="url(#mksatSp4)" /><path d="M18 100L222 100L222 242Q222 250 214 250L26 250Q18 250 18 242Z" fill="url(#mksatSg5)" /><path d="M18 100L222 100L222 242Q222 250 214 250L26 250Q18 250 18 242Z" fill="none" stroke="#131316" stroke-width="1"/><rect x="22" y="104" width="196" height="142" rx="6" fill="none" stroke="#131316" stroke-width=".5" stroke-dasharray="1.6 1.2"/><circle cx="58" cy="104" r="6.5" fill="none" stroke="url(#mksatSg1)" stroke-width="2.4"/><rect x="53" y="109" width="10" height="5" rx="1.5" fill="url(#mksatSg1)" /><path d="M48.0 113L68.0 113L68.0 141.0L58 153L48.0 141.0Z" fill="#1B1B1E" stroke="#131316" stroke-width=".6"/><path d="M50.0 114L50.0 140.2L58 150.5L66.0 140.2L66.0 114" fill="none" stroke="#131316" stroke-width=".4" stroke-dasharray="1.2 1"/><circle cx="182" cy="104" r="6.5" fill="none" stroke="url(#mksatSg1)" stroke-width="2.4"/><rect x="177" y="109" width="10" height="5" rx="1.5" fill="url(#mksatSg1)" /><path d="M172.0 113L192.0 113L192.0 141.0L182 153L172.0 141.0Z" fill="#1B1B1E" stroke="#131316" stroke-width=".6"/><path d="M174.0 114L174.0 140.2L182 150.5L190.0 140.2L190.0 114" fill="none" stroke="#131316" stroke-width=".4" stroke-dasharray="1.2 1"/><text x="120" y="134" font-family="'Helvetica Neue',Helvetica,Arial,Roboto,sans-serif" font-size="9" font-weight="500" fill="url(#mksatSg1)" text-anchor="middle" letter-spacing="1.2" textLength="70" lengthAdjust="spacingAndGlyphs" >MICHAEL KORS</text></svg>